<?xml version="1.0" standalone="no"?>
<!DOCTYPE svg PUBLIC "-//W3C//DTD SVG 1.1//EN" "http://www.w3.org/Graphics/SVG/1.1/DTD/svg11.dtd">
<svg width="100%" height="100%" viewBox="0 0 1024 1024" version="1.1" xmlns="http://www.w3.org/2000/svg" xmlns:xlink="http://www.w3.org/1999/xlink" xml:space="preserve" style="fill-rule:evenodd;clip-rule:evenodd;stroke-linejoin:round;stroke-miterlimit:1.41421;">
    <g transform="matrix(3.41447,1.41995e-29,1.35092e-29,3.41447,-2709.38,-2064.39)">
        <path d="M1093.4,698.4C1093.4,694.8 1093.4,691.2 1093.4,687.7C1093.4,684.7 1093.3,681.7 1093.3,678.6C1093.1,672 1092.7,665.4 1091.6,658.9C1090.4,652.3 1088.5,646.2 1085.4,640.2C1082.4,634.3 1078.5,628.9 1073.8,624.2C1069.1,619.5 1063.7,615.6 1057.8,612.6C1051.8,609.5 1045.7,607.6 1039.1,606.4C1032.6,605.2 1026,604.8 1019.4,604.7C1016.4,604.6 1013.4,604.6 1010.3,604.6C1006.7,604.6 1003.1,604.6 999.6,604.6L887.3,604.6C883.7,604.6 880.1,604.6 876.6,604.6C873.6,604.6 870.6,604.7 867.5,604.7C860.9,604.9 854.3,605.3 847.8,606.4C841.2,607.6 835.1,609.5 829.1,612.6C823.2,615.6 817.8,619.5 813.1,624.2C808.4,628.9 804.5,634.3 801.5,640.2C798.4,646.2 796.5,652.3 795.3,658.9C794.1,665.4 793.7,672 793.6,678.6C793.5,681.6 793.5,684.6 793.5,687.7L793.5,821.4C793.5,824.4 793.6,827.4 793.6,830.5C793.8,837.1 794.2,843.7 795.3,850.2C796.5,856.8 798.4,862.9 801.5,868.9C804.5,874.8 808.4,880.2 813.1,884.9C817.8,889.6 823.2,893.5 829.1,896.5C835.1,899.6 841.2,901.5 847.8,902.7C854.3,903.9 860.9,904.3 867.5,904.4C870.5,904.5 873.5,904.5 876.6,904.5L1010.3,904.5C1013.3,904.5 1016.3,904.4 1019.4,904.4C1026,904.2 1032.6,903.8 1039.1,902.7C1045.7,901.5 1051.8,899.6 1057.8,896.5C1063.7,893.5 1069.1,889.6 1073.8,884.9C1078.5,880.2 1082.4,874.8 1085.4,868.9C1088.5,862.9 1090.4,856.8 1091.6,850.2C1092.8,843.7 1093.2,837.1 1093.3,830.5C1093.4,827.5 1093.4,824.5 1093.4,821.4C1093.4,817.8 1093.4,814.2 1093.4,810.7L1093.4,698.4L1093.4,698.4Z" style="fill:black;fill-rule:nonzero;"/>
    </g>
</svg>
