<svg height="2733.3333" viewBox="0 0 2733.3333 2733.3333" width="2733.3333" xmlns="http://www.w3.org/2000/svg" xmlns:xlink="http://www.w3.org/1999/xlink"><clipPath id="a"><path d="m0 2050h2050v-2050h-2050z"/></clipPath><clipPath id="b"><path d="m0 2050h2050v-2050h-2050z"/></clipPath><g transform="matrix(1.3333333 0 0 -1.3333333 0 2733.3333)"><path d="m0 0h2050v2050h-2050z" fill="#424242"/><g clip-path="url(#a)"><path d="m0 0h-505.101v1024.001h1023.855v-512.001s23.207-512-518.754-512" fill="#53c3ee" transform="translate(1530.1018 1)"/><path d="m0 0h505.102v1024.001h-1023.856v-512.001s-23.207-512 518.754-512" fill="#f2e247" transform="translate(519.8982 1)"/><path d="m0 0h-505.101v-1023.999h1023.855v512s23.207 511.999-518.754 511.999" fill="#eb6868" transform="translate(1530.1018 2049)"/><path d="m0 0h505.102v-1023.999h-1023.856v512s-23.207 511.999 518.754 511.999" fill="#75c16e" transform="translate(519.8982 2049)"/></g><g clip-path="url(#b)"><path d="m0 0h2048" fill="none" stroke="#424242" stroke-miterlimit="10" stroke-width="96" transform="translate(1 1025.0011)"/><path d="m0 0v-2048z" fill="none" stroke="#424242" stroke-miterlimit="10" stroke-width="96" transform="translate(1025 2049)"/><path d="m0 0h-1011.189c-542.49 0-519.26-512.499-519.26-512.499v-512.498-512.503s-23.23-512.5 519.26-512.5h1011.189c542.491 0 519.261 512.5 519.261 512.5v1025.001s23.23 512.499-519.261 512.499m0-64c79.492 0 149.885-12.046 209.223-35.804 49.763-19.924 92.827-48.572 127.997-85.149 27.932-29.048 51.49-63.671 70.019-102.905 15.237-32.263 27.157-67.735 35.427-105.43 14.141-64.451 12.74-113.891 12.656-116.407l-.061-1.161v-1.643-1025.001l-.018-1.257.079-1.542c.082-2.459 1.494-51.921-12.656-116.412-8.27-37.696-20.19-73.168-35.427-105.43-18.53-39.235-42.088-73.857-70.019-102.906-35.17-36.577-78.234-65.225-127.997-85.149-59.338-23.758-129.731-35.804-209.223-35.804h-1011.189c-79.492 0-149.884 12.046-209.222 35.803-49.763 19.925-92.827 48.572-127.997 85.149-27.932 29.049-51.489 63.672-70.019 102.906-15.238 32.263-27.157 67.735-35.427 105.431-14.141 64.451-12.74 113.891-12.656 116.408l.06 1.16v1.643 512.503 512.498l.019 1.257-.079 1.542c-.082 2.459-1.494 51.921 12.656 116.412 8.27 37.695 20.189 73.167 35.427 105.43 18.53 39.234 42.087 73.857 70.019 102.906 35.169 36.577 78.234 65.224 127.997 85.149 59.338 23.757 129.73 35.803 209.222 35.803z" fill="#414241" transform="translate(1530.5941 2050)"/></g></g></svg>