<svg xmlns="http://www.w3.org/2000/svg" viewBox="0 0 1024 1024"><path d="M758.39,1011.51H512V512h499.44V761.76S1022.76,1011.51,758.39,1011.51Z" style="fill:#5ac8fa"/><path d="M265.61,1011.51H512V512H12.56V761.76S1.24,1011.51,265.61,1011.51Z" style="fill:#fc0"/><path d="M758.39,12.49H512V512h499.44V262.24S1022.76,12.49,758.39,12.49Z" style="fill:#ff453a"/><path d="M265.61,12.49H512V512H12.56V262.24S1.24,12.49,265.61,12.49Z" style="fill:#34c759"/><line y1="512" x2="1024" y2="512" style="fill:none;stroke:#424242;stroke-miterlimit:10;stroke-width:38px"/><polyline points="512 0 512 1024 512 0" style="fill:none;stroke:#424242;stroke-miterlimit:10;stroke-width:38px"/><path d="M764.55,38c38.91,0,73.3,5.86,102.21,17.43,24,9.62,44.85,23.43,61.82,41.06a186.11,186.11,0,0,1,33.82,49.63,241.45,241.45,0,0,1,17.29,51.25c6.92,31.31,6.32,55.42,6.27,57l0,.66V768l0,.72.05.94c0,1.51.66,25.64-6.27,57a241.45,241.45,0,0,1-17.29,51.25,186,186,0,0,1-33.82,49.63c-17,17.63-37.77,31.44-61.82,41.06C837.85,980.14,803.46,986,764.55,986H259.45c-38.91,0-73.3-5.86-102.21-17.43-24.05-9.62-44.85-23.43-61.82-41.06A186,186,0,0,1,61.6,877.88a241.45,241.45,0,0,1-17.29-51.25c-6.92-31.31-6.32-55.42-6.27-57l0-.66V256l0-.72-.05-.94c0-1.51-.65-25.64,6.27-57A241.45,241.45,0,0,1,61.6,146.12,186,186,0,0,1,95.42,96.49c17-17.63,37.77-31.44,61.82-41.06C186.15,43.86,220.54,38,259.45,38h505.1m0-38H259.45C-11.53,0,.07,256,.07,256V768s-11.6,256,259.38,256h505.1c271,0,259.38-256,259.38-256V256S1035.53,0,764.55,0Z" style="fill:#414241"/></svg>