<svg height="160pt" preserveAspectRatio="xMidYMid meet" viewBox="0 0 160 160" width="160pt" xmlns="http://www.w3.org/2000/svg"><path d="m670 1495c-190-43-320-167-375-356-74-261-47-422 111-636l16-22-54 3c-73 4-135 34-206 100-66 60-86 64-129 25-48-46-22-137 66-227 27-28 30-35 20-54-27-51 17-137 94-182 105-62 301-73 409-24 66 30 124 87 158 154 19 38 25 44 28 29 3-11 20-43 38-71 59-88 143-133 266-142 137-9 275 33 336 102 34 39 50 103 32 136-10 19-7 25 20 51 17 17 45 51 61 77 58 92 26 185-61 172-8-1-38-24-66-50-65-61-125-92-189-95-27-1-53-1-58 2-4 2 9 23 29 46 43 51 97 162 115 237 28 121-1 341-62 467-54 112-164 205-287 243-89 28-228 34-312 15z" transform="matrix(.1 0 0 -.1 0 160)"/></svg>