<svg xmlns:dc="http://purl.org/dc/elements/1.1/" xmlns:cc="http://creativecommons.org/ns#" xmlns:rdf="http://www.w3.org/1999/02/22-rdf-syntax-ns#" xmlns:svg="http://www.w3.org/2000/svg" xmlns="http://www.w3.org/2000/svg" viewBox="0 0 1365.333 1365.333" height="1365.333" width="1365.333" xml:space="preserve" id="svg2" version="1.1"><metadata id="metadata8"><rdf:RDF><cc:Work><dc:format>image/svg+xml</dc:format><dc:type rdf:resource="http://purl.org/dc/dcmitype/StillImage"/></cc:Work></rdf:RDF></metadata><defs id="defs6"><clipPath id="clipPath20" clipPathUnits="userSpaceOnUse"><path id="path18" d="M 0,1024 H 1024 V 0 H 0 Z"/></clipPath><clipPath id="clipPath30" clipPathUnits="userSpaceOnUse"><path id="path28" d="M 0,1024 H 1024 V 0 H 0 Z"/></clipPath></defs><g transform="matrix(1.3333333,0,0,-1.3333333,0,1365.3333)" id="g10"><path id="path12" d="M 0,0 H 1024 V 1024 H 0 Z" fill="#1c1c1c" fill-opacity="1" fill-rule="nonzero" stroke="none"/><g id="g14"><g clip-path="url(#clipPath20)" id="g16"><path id="path22" d="M 1024,0 H 0 v 1024 h 1024 z" fill="none" stroke="#231f20" stroke-width="1" stroke-linecap="butt" stroke-linejoin="miter" stroke-miterlimit="10" stroke-dasharray="none" stroke-opacity="1"/></g></g><g id="g24"><g clip-path="url(#clipPath30)" id="g26"><g transform="translate(553.25,883.25)" id="g32"><path id="path34" d="m 0,0 c 0,-22.782 -18.468,-41.25 -41.25,-41.25 -22.782,0 -41.25,18.468 -41.25,41.25 0,22.782 18.468,41.25 41.25,41.25 C -18.468,41.25 0,22.782 0,0" fill="#00b5bb" fill-opacity="1" fill-rule="nonzero" stroke="none"/></g><g transform="translate(553.25,140.75)" id="g36"><path id="path38" d="m 0,0 c 0,-22.782 -18.468,-41.25 -41.25,-41.25 -22.782,0 -41.25,18.468 -41.25,41.25 0,22.782 18.468,41.25 41.25,41.25 C -18.468,41.25 0,22.782 0,0" fill="#f9ceb6" fill-opacity="1" fill-rule="nonzero" stroke="none"/></g><g transform="translate(455.7578,881.2764)" id="g40"><path id="path42" d="m 0,0 c 5.896,-22.005 -7.163,-44.625 -29.168,-50.521 -22.005,-5.896 -44.624,7.163 -50.521,29.168 -5.896,22.006 7.163,44.624 29.168,50.521 C -28.515,35.064 -5.896,22.005 0,0" fill="#817fbd" fill-opacity="1" fill-rule="nonzero" stroke="none"/></g><g transform="translate(647.9307,164.0762)" id="g44"><path id="path46" d="m 0,0 c 5.896,-22.005 -7.162,-44.624 -29.168,-50.521 -22.005,-5.896 -44.624,7.164 -50.52,29.168 -5.897,22.006 7.163,44.624 29.167,50.521 C -28.515,35.064 -5.896,22.006 0,0" fill="#c49a6c" fill-opacity="1" fill-rule="nonzero" stroke="none"/></g><g transform="translate(362.0986,854.1367)" id="g48"><path id="path50" d="m 0,0 c 11.391,-19.729 4.631,-44.958 -15.099,-56.348 -19.729,-11.391 -44.957,-4.631 -56.348,15.098 -11.391,19.73 -4.631,44.958 15.098,56.349 C -36.619,26.49 -11.391,19.73 0,0" fill="#f15949" fill-opacity="1" fill-rule="nonzero" stroke="none"/></g><g transform="translate(733.3486,211.1133)" id="g52"><path id="path54" d="m 0,0 c 11.391,-19.729 4.631,-44.958 -15.099,-56.349 -19.729,-11.39 -44.958,-4.63 -56.348,15.099 -11.391,19.729 -4.631,44.957 15.098,56.349 C -36.619,26.489 -11.391,19.729 0,0" fill="#ffffff" fill-opacity="1" fill-rule="nonzero" stroke="none"/></g><g transform="translate(278.6548,803.6816)" id="g56"><path id="path58" d="m 0,0 c 16.109,-16.109 16.109,-42.227 0,-58.336 -16.109,-16.109 -42.227,-16.109 -58.336,0 -16.109,16.109 -16.109,42.227 0,58.336 C -42.227,16.109 -16.109,16.109 0,0" fill="#f19d21" fill-opacity="1" fill-rule="nonzero" stroke="none"/></g><g transform="translate(803.6816,278.6543)" id="g60"><path id="path62" d="m 0,0 c 16.109,-16.108 16.109,-42.227 0,-58.336 -16.109,-16.109 -42.228,-16.109 -58.336,0 -16.109,16.109 -16.109,42.228 0,58.336 C -42.228,16.109 -16.109,16.109 0,0" fill="#1b75bc" fill-opacity="1" fill-rule="nonzero" stroke="none"/></g><g transform="translate(211.1133,733.3486)" id="g64"><path id="path66" d="M 0,0 C 19.729,-11.391 26.489,-36.619 15.098,-56.349 3.708,-76.078 -21.521,-82.838 -41.25,-71.447 -60.98,-60.056 -67.74,-34.828 -56.349,-15.099 -44.958,4.631 -19.73,11.391 0,0" fill="#f9ceb6" fill-opacity="1" fill-rule="nonzero" stroke="none"/></g><g transform="translate(854.1367,362.0986)" id="g68"><path id="path70" d="M 0,0 C 19.729,-11.391 26.489,-36.619 15.099,-56.349 3.708,-76.078 -21.521,-82.838 -41.25,-71.447 -60.979,-60.057 -67.739,-34.828 -56.349,-15.099 -44.957,4.631 -19.729,11.391 0,0" fill="#00b5bb" fill-opacity="1" fill-rule="nonzero" stroke="none"/></g><g transform="translate(164.0762,647.9312)" id="g72"><path id="path74" d="M 0,0 C 22.006,-5.896 35.064,-28.516 29.168,-50.521 23.272,-72.526 0.653,-85.585 -21.353,-79.689 -43.358,-73.792 -56.417,-51.174 -50.521,-29.168 -44.624,-7.163 -22.005,5.896 0,0" fill="#c49a6c" fill-opacity="1" fill-rule="nonzero" stroke="none"/></g><g transform="translate(881.2764,455.7578)" id="g76"><path id="path78" d="m 0,0 c 22.005,-5.896 35.064,-28.516 29.168,-50.521 -5.897,-22.005 -28.516,-35.064 -50.521,-29.167 -22.005,5.896 -35.064,28.514 -29.168,50.52 C -44.624,-7.163 -22.006,5.896 0,0" fill="#817fbd" fill-opacity="1" fill-rule="nonzero" stroke="none"/></g><g transform="translate(140.75,553.25)" id="g80"><path id="path82" d="M 0,0 C 22.782,0 41.25,-18.468 41.25,-41.25 41.25,-64.032 22.782,-82.5 0,-82.5 c -22.782,0 -41.25,18.468 -41.25,41.25 C -41.25,-18.468 -22.782,0 0,0" fill="#ffffff" fill-opacity="1" fill-rule="nonzero" stroke="none"/></g><g transform="translate(883.25,553.25)" id="g84"><path id="path86" d="M 0,0 C 22.782,0 41.25,-18.468 41.25,-41.25 41.25,-64.032 22.782,-82.5 0,-82.5 c -22.782,0 -41.25,18.468 -41.25,41.25 C -41.25,-18.468 -22.782,0 0,0" fill="#f15949" fill-opacity="1" fill-rule="nonzero" stroke="none"/></g><g transform="translate(142.7236,455.7578)" id="g88"><path id="path90" d="m 0,0 c 22.005,5.896 44.625,-7.163 50.521,-29.168 5.896,-22.006 -7.163,-44.624 -29.168,-50.52 -22.006,-5.897 -44.624,7.162 -50.521,29.167 C -35.064,-28.516 -22.005,-5.896 0,0" fill="#1b75bc" fill-opacity="1" fill-rule="nonzero" stroke="none"/></g><g transform="translate(859.9238,647.9312)" id="g92"><path id="path94" d="m 0,0 c 22.005,5.896 44.624,-7.163 50.521,-29.168 5.896,-22.006 -7.164,-44.624 -29.168,-50.521 -22.006,-5.896 -44.624,7.163 -50.521,29.168 C -35.064,-28.516 -22.006,-5.896 0,0" fill="#f19d21" fill-opacity="1" fill-rule="nonzero" stroke="none"/></g><g transform="translate(169.8633,362.0986)" id="g96"><path id="path98" d="M 0,0 C 19.729,11.391 44.958,4.631 56.348,-15.099 67.739,-34.828 60.979,-60.057 41.25,-71.447 21.52,-82.838 -3.708,-76.078 -15.099,-56.349 -26.49,-36.619 -19.73,-11.391 0,0" fill="#00b5bb" fill-opacity="1" fill-rule="nonzero" stroke="none"/></g><g transform="translate(812.8867,733.3486)" id="g100"><path id="path102" d="M 0,0 C 19.729,11.391 44.958,4.631 56.349,-15.099 67.739,-34.828 60.979,-60.056 41.25,-71.447 21.521,-82.838 -3.707,-76.078 -15.099,-56.349 -26.489,-36.619 -19.729,-11.391 0,0" fill="#f9ceb6" fill-opacity="1" fill-rule="nonzero" stroke="none"/></g><g transform="translate(220.3184,278.6543)" id="g104"><path id="path106" d="m 0,0 c 16.109,16.109 42.227,16.109 58.336,0 16.109,-16.108 16.109,-42.227 0,-58.336 C 42.227,-74.445 16.109,-74.445 0,-58.336 -16.109,-42.227 -16.109,-16.108 0,0" fill="#817fbd" fill-opacity="1" fill-rule="nonzero" stroke="none"/></g><g transform="translate(745.3457,803.6816)" id="g108"><path id="path110" d="m 0,0 c 16.108,16.109 42.227,16.109 58.336,0 16.109,-16.109 16.109,-42.227 0,-58.336 C 42.227,-74.445 16.108,-74.445 0,-58.336 -16.109,-42.227 -16.109,-16.109 0,0" fill="#c49a6c" fill-opacity="1" fill-rule="nonzero" stroke="none"/></g><g transform="translate(293.3921,207.002)" id="g112"><path id="path114" d="M 0,0 C 11.391,19.729 36.619,26.489 56.349,15.099 76.078,3.707 82.838,-21.521 71.447,-41.25 60.057,-60.979 34.828,-67.739 15.099,-56.349 -4.631,-44.958 -11.391,-19.729 0,0" fill="#f15949" fill-opacity="1" fill-rule="nonzero" stroke="none"/></g><g transform="translate(661.9014,854.1367)" id="g116"><path id="path118" d="M 0,0 C 11.391,19.73 36.619,26.49 56.349,15.099 76.078,3.708 82.838,-21.52 71.447,-41.25 60.057,-60.979 34.828,-67.739 15.099,-56.348 -4.631,-44.958 -11.391,-19.729 0,0" fill="#ffffff" fill-opacity="1" fill-rule="nonzero" stroke="none"/></g><g transform="translate(376.0688,164.0762)" id="g120"><path id="path122" d="M 0,0 C 5.896,22.006 28.516,35.064 50.521,29.168 72.526,23.271 85.585,0.653 79.689,-21.353 73.792,-43.357 51.174,-56.417 29.168,-50.521 7.163,-44.624 -5.896,-22.005 0,0" fill="#f19d21" fill-opacity="1" fill-rule="nonzero" stroke="none"/></g><g transform="translate(568.2422,881.2764)" id="g124"><path id="path126" d="M 0,0 C 5.896,22.005 28.516,35.064 50.521,29.168 72.526,23.271 85.585,0.653 79.688,-21.353 73.792,-43.358 51.174,-56.417 29.168,-50.521 7.163,-44.625 -5.896,-22.005 0,0" fill="#1b75bc" fill-opacity="1" fill-rule="nonzero" stroke="none"/></g><g transform="translate(732.9414,688.7534)" id="g128"><path id="path130" d="m 0,0 c -12.202,-12.203 -31.986,-12.203 -44.188,0 -12.203,12.202 -12.203,31.986 0,44.188 C -31.986,56.39 -12.202,56.39 0,44.188 12.202,31.986 12.202,12.202 0,0" fill="#00b5bb" fill-opacity="1" fill-rule="nonzero" stroke="none"/></g><g transform="translate(335.2466,291.0586)" id="g132"><path id="path134" d="m 0,0 c -12.202,-12.202 -31.986,-12.202 -44.188,0 -12.202,12.202 -12.202,31.986 0,44.188 12.202,12.203 31.986,12.203 44.188,0 C 12.203,31.986 12.203,12.202 0,0" fill="#f9ceb6" fill-opacity="1" fill-rule="nonzero" stroke="none"/></g><g transform="translate(679.666,739.9146)" id="g136"><path id="path138" d="m 0,0 c -8.628,-14.945 -27.738,-20.065 -42.683,-11.437 -14.944,8.628 -20.065,27.738 -11.436,42.683 8.628,14.944 27.737,20.065 42.682,11.437 C 3.508,34.054 8.628,14.944 0,0" fill="#817fbd" fill-opacity="1" fill-rule="nonzero" stroke="none"/></g><g transform="translate(398.4536,252.8398)" id="g140"><path id="path142" d="m 0,0 c -8.628,-14.944 -27.738,-20.065 -42.683,-11.437 -14.944,8.628 -20.065,27.738 -11.437,42.683 8.629,14.944 27.738,20.065 42.683,11.437 C 3.508,34.055 8.628,14.944 0,0" fill="#c49a6c" fill-opacity="1" fill-rule="nonzero" stroke="none"/></g><g transform="translate(614.9639,775.5435)" id="g144"><path id="path146" d="m 0,0 c -4.466,-16.668 -21.599,-26.561 -38.268,-22.094 -16.669,4.466 -26.56,21.599 -22.094,38.268 4.466,16.669 21.599,26.56 38.268,22.094 C -5.425,33.802 4.467,16.668 0,0" fill="#f15949" fill-opacity="1" fill-rule="nonzero" stroke="none"/></g><g transform="translate(469.3979,232.2822)" id="g148"><path id="path150" d="m 0,0 c -4.466,-16.668 -21.6,-26.561 -38.268,-22.094 -16.669,4.466 -26.561,21.6 -22.094,38.268 4.466,16.669 21.599,26.56 38.268,22.095 C -5.425,33.802 4.466,16.669 0,0" fill="#ffffff" fill-opacity="1" fill-rule="nonzero" stroke="none"/></g><g transform="translate(543.2461,793.2124)" id="g152"><path id="path154" d="m 0,0 c 0,-17.256 -13.989,-31.246 -31.246,-31.246 -17.257,0 -31.246,13.99 -31.246,31.246 0,17.257 13.989,31.246 31.246,31.246 C -13.989,31.246 0,17.257 0,0" fill="#f19d21" fill-opacity="1" fill-rule="nonzero" stroke="none"/></g><g transform="translate(543.2461,230.7871)" id="g156"><path id="path158" d="m 0,0 c 0,-17.256 -13.989,-31.245 -31.246,-31.245 -17.257,0 -31.246,13.989 -31.246,31.245 0,17.257 13.989,31.246 31.246,31.246 C -13.989,31.246 0,17.257 0,0" fill="#1b75bc" fill-opacity="1" fill-rule="nonzero" stroke="none"/></g><g transform="translate(469.3979,791.7178)" id="g160"><path id="path162" d="m 0,0 c 4.466,-16.669 -5.425,-33.802 -22.094,-38.269 -16.669,-4.466 -33.802,5.426 -38.268,22.095 -4.467,16.668 5.425,33.801 22.094,38.268 C -21.6,26.56 -4.466,16.668 0,0" fill="#f9ceb6" fill-opacity="1" fill-rule="nonzero" stroke="none"/></g><g transform="translate(614.9639,248.4561)" id="g164"><path id="path166" d="m 0,0 c 4.467,-16.668 -5.425,-33.802 -22.094,-38.268 -16.669,-4.466 -33.802,5.426 -38.268,22.094 -4.466,16.669 5.425,33.802 22.094,38.269 C -21.599,26.561 -4.466,16.669 0,0" fill="#00b5bb" fill-opacity="1" fill-rule="nonzero" stroke="none"/></g><g transform="translate(398.4536,771.1602)" id="g168"><path id="path170" d="m 0,0 c 8.628,-14.945 3.508,-34.054 -11.437,-42.683 -14.945,-8.628 -34.054,-3.507 -42.683,11.437 -8.628,14.945 -3.507,34.055 11.437,42.683 C -27.738,20.065 -8.628,14.945 0,0" fill="#c49a6c" fill-opacity="1" fill-rule="nonzero" stroke="none"/></g><g transform="translate(679.666,284.0859)" id="g172"><path id="path174" d="m 0,0 c 8.628,-14.945 3.508,-34.055 -11.437,-42.683 -14.945,-8.629 -34.054,-3.507 -42.682,11.437 -8.629,14.944 -3.508,34.055 11.436,42.683 C -27.738,20.064 -8.628,14.944 0,0" fill="#817fbd" fill-opacity="1" fill-rule="nonzero" stroke="none"/></g><g transform="translate(335.2466,732.9414)" id="g176"><path id="path178" d="m 0,0 c 12.203,-12.202 12.203,-31.986 0,-44.188 -12.202,-12.203 -31.986,-12.203 -44.188,0 -12.202,12.202 -12.202,31.986 0,44.188 C -31.986,12.202 -12.202,12.202 0,0" fill="#ffffff" fill-opacity="1" fill-rule="nonzero" stroke="none"/></g><g transform="translate(732.9414,335.2471)" id="g180"><path id="path182" d="m 0,0 c 12.202,-12.202 12.202,-31.986 0,-44.188 -12.202,-12.203 -31.986,-12.203 -44.188,0 -12.203,12.202 -12.203,31.986 0,44.188 C -31.986,12.202 -12.202,12.202 0,0" fill="#f15949" fill-opacity="1" fill-rule="nonzero" stroke="none"/></g><g transform="translate(284.0854,679.666)" id="g184"><path id="path186" d="M 0,0 C 14.945,-8.628 20.065,-27.738 11.437,-42.683 2.809,-57.627 -16.301,-62.748 -31.246,-54.12 -46.19,-45.491 -51.311,-26.381 -42.683,-11.437 -34.054,3.508 -14.944,8.628 0,0" fill="#1b75bc" fill-opacity="1" fill-rule="nonzero" stroke="none"/></g><g transform="translate(771.1602,398.4531)" id="g188"><path id="path190" d="M 0,0 C 14.944,-8.628 20.065,-27.737 11.437,-42.683 2.809,-57.627 -16.301,-62.747 -31.246,-54.119 -46.19,-45.491 -51.311,-26.381 -42.683,-11.437 -34.055,3.508 -14.944,8.629 0,0" fill="#f19d21" fill-opacity="1" fill-rule="nonzero" stroke="none"/></g><g transform="translate(248.4565,614.9644)" id="g192"><path id="path194" d="m 0,0 c 16.668,-4.466 26.561,-21.6 22.094,-38.268 -4.466,-16.669 -21.599,-26.561 -38.268,-22.094 -16.669,4.466 -26.56,21.599 -22.094,38.268 C -33.802,-5.426 -16.668,4.466 0,0" fill="#00b5bb" fill-opacity="1" fill-rule="nonzero" stroke="none"/></g><g transform="translate(791.7178,469.3984)" id="g196"><path id="path198" d="m 0,0 c 16.668,-4.467 26.561,-21.6 22.094,-38.269 -4.466,-16.669 -21.6,-26.56 -38.268,-22.093 -16.669,4.466 -26.56,21.598 -22.095,38.267 C -33.802,-5.426 -16.669,4.466 0,0" fill="#f9ceb6" fill-opacity="1" fill-rule="nonzero" stroke="none"/></g><g transform="translate(230.7876,543.2456)" id="g200"><path id="path202" d="m 0,0 c 17.256,0 31.246,-13.989 31.246,-31.246 0,-17.256 -13.99,-31.246 -31.246,-31.246 -17.257,0 -31.246,13.99 -31.246,31.246 C -31.246,-13.989 -17.257,0 0,0" fill="#817fbd" fill-opacity="1" fill-rule="nonzero" stroke="none"/></g><g transform="translate(793.2129,543.2456)" id="g204"><path id="path206" d="m 0,0 c 17.256,0 31.245,-13.989 31.245,-31.246 0,-17.256 -13.989,-31.246 -31.245,-31.246 -17.257,0 -31.246,13.99 -31.246,31.246 C -31.246,-13.989 -17.257,0 0,0" fill="#c49a6c" fill-opacity="1" fill-rule="nonzero" stroke="none"/></g><g transform="translate(231.5483,465.7275)" id="g208"><path id="path210" d="m 0,0 c 16.668,4.467 33.802,-5.425 38.268,-22.094 4.466,-16.669 -5.425,-33.802 -22.094,-38.268 -16.669,-4.466 -33.802,5.425 -38.268,22.094 C -26.561,-21.6 -16.668,-4.466 0,0" fill="#f15949" fill-opacity="1" fill-rule="nonzero" stroke="none"/></g><g transform="translate(775.5439,614.9644)" id="g212"><path id="path214" d="m 0,0 c 16.668,4.466 33.802,-5.426 38.268,-22.094 4.466,-16.669 -5.426,-33.802 -22.094,-38.268 -16.669,-4.467 -33.802,5.425 -38.269,22.094 C -26.561,-21.6 -16.669,-4.466 0,0" fill="#ffffff" fill-opacity="1" fill-rule="nonzero" stroke="none"/></g><g transform="translate(252.8398,398.4531)" id="g216"><path id="path218" d="M 0,0 C 14.945,8.629 34.054,3.508 42.683,-11.437 51.311,-26.381 46.19,-45.491 31.246,-54.119 16.301,-62.747 -2.809,-57.627 -11.437,-42.683 -20.065,-27.737 -14.945,-8.628 0,0" fill="#f19d21" fill-opacity="1" fill-rule="nonzero" stroke="none"/></g><g transform="translate(739.9141,679.666)" id="g220"><path id="path222" d="M 0,0 C 14.945,8.628 34.055,3.508 42.683,-11.437 51.312,-26.381 46.19,-45.491 31.246,-54.12 16.302,-62.748 -2.809,-57.627 -11.437,-42.683 -20.064,-27.738 -14.944,-8.628 0,0" fill="#1b75bc" fill-opacity="1" fill-rule="nonzero" stroke="none"/></g><g transform="translate(722.9092,488.5654)" id="g224"><path id="path226" d="m 0,0 c -12.942,0 -23.435,10.492 -23.435,23.435 0,12.942 10.493,23.434 23.435,23.434 12.942,0 23.435,-10.492 23.435,-23.434 C 23.435,10.492 12.942,0 0,0" fill="#00b5bb" fill-opacity="1" fill-rule="nonzero" stroke="none"/></g><g transform="translate(301.0903,488.5654)" id="g228"><path id="path230" d="m 0,0 c -12.942,0 -23.434,10.492 -23.434,23.435 0,12.942 10.492,23.434 23.434,23.434 12.943,0 23.435,-10.492 23.435,-23.434 C 23.435,10.492 12.943,0 0,0" fill="#f9ceb6" fill-opacity="1" fill-rule="nonzero" stroke="none"/></g><g transform="translate(721.7881,543.9517)" id="g232"><path id="path234" d="m 0,0 c -12.501,-3.35 -25.352,4.069 -28.701,16.57 -3.35,12.502 4.069,25.352 16.57,28.701 C 0.371,48.622 13.221,41.203 16.57,28.701 19.921,16.2 12.502,3.35 0,0" fill="#817fbd" fill-opacity="1" fill-rule="nonzero" stroke="none"/></g><g transform="translate(314.3423,434.7764)" id="g236"><path id="path238" d="m 0,0 c -12.501,-3.35 -25.351,4.069 -28.701,16.571 -3.35,12.501 4.069,25.352 16.571,28.701 C 0.371,48.622 13.221,41.203 16.571,28.701 19.92,16.2 12.501,3.351 0,0" fill="#c49a6c" fill-opacity="1" fill-rule="nonzero" stroke="none"/></g><g transform="translate(706.3701,597.1602)" id="g240"><path id="path242" d="m 0,0 c -11.208,-6.471 -25.541,-2.631 -32.012,8.577 -6.471,11.209 -2.631,25.541 8.577,32.012 C -12.226,47.061 2.106,43.22 8.577,32.012 15.049,20.803 11.209,6.471 0,0" fill="#f15949" fill-opacity="1" fill-rule="nonzero" stroke="none"/></g><g transform="translate(341.0645,386.251)" id="g244"><path id="path246" d="m 0,0 c -11.208,-6.472 -25.541,-2.632 -32.012,8.577 -6.471,11.208 -2.631,25.541 8.577,32.012 C -12.226,47.061 2.106,43.22 8.577,32.012 15.049,20.803 11.208,6.471 0,0" fill="#ffffff" fill-opacity="1" fill-rule="nonzero" stroke="none"/></g><g transform="translate(677.7061,644.5649)" id="g248"><path id="path250" d="m 0,0 c -9.151,-9.152 -23.989,-9.152 -33.142,0 -9.151,9.152 -9.151,23.989 0,33.141 9.153,9.152 23.991,9.152 33.142,0 C 9.151,23.989 9.151,9.152 0,0" fill="#f19d21" fill-opacity="1" fill-rule="nonzero" stroke="none"/></g><g transform="translate(379.4351,346.2939)" id="g252"><path id="path254" d="m 0,0 c -9.152,-9.151 -23.989,-9.151 -33.141,0 -9.152,9.151 -9.152,23.989 0,33.142 9.152,9.151 23.989,9.151 33.141,0 C 9.152,23.989 9.152,9.151 0,0" fill="#1b75bc" fill-opacity="1" fill-rule="nonzero" stroke="none"/></g><g transform="translate(637.749,682.9355)" id="g256"><path id="path258" d="m 0,0 c -6.471,-11.208 -20.803,-15.049 -32.012,-8.577 -11.208,6.471 -15.049,20.803 -8.577,32.012 6.471,11.208 20.804,15.048 32.012,8.577 C 2.632,25.541 6.472,11.208 0,0" fill="#f9ceb6" fill-opacity="1" fill-rule="nonzero" stroke="none"/></g><g transform="translate(426.8398,317.6299)" id="g260"><path id="path262" d="m 0,0 c -6.471,-11.209 -20.803,-15.049 -32.012,-8.577 -11.208,6.471 -15.049,20.803 -8.577,32.012 6.471,11.208 20.803,15.048 32.012,8.577 C 2.631,25.541 6.471,11.208 0,0" fill="#00b5bb" fill-opacity="1" fill-rule="nonzero" stroke="none"/></g><g transform="translate(589.2236,709.6577)" id="g264"><path id="path266" d="m 0,0 c -3.351,-12.501 -16.2,-19.92 -28.701,-16.571 -12.502,3.35 -19.921,16.2 -16.571,28.701 3.349,12.502 16.2,19.921 28.701,16.571 C -4.069,25.351 3.35,12.501 0,0" fill="#c49a6c" fill-opacity="1" fill-rule="nonzero" stroke="none"/></g><g transform="translate(480.0483,302.2119)" id="g268"><path id="path270" d="m 0,0 c -3.35,-12.502 -16.2,-19.921 -28.701,-16.57 -12.502,3.349 -19.921,16.199 -16.57,28.701 3.349,12.501 16.199,19.92 28.701,16.57 C -4.069,25.352 3.35,12.501 0,0" fill="#817fbd" fill-opacity="1" fill-rule="nonzero" stroke="none"/></g><g transform="translate(535.4346,722.9097)" id="g272"><path id="path274" d="m 0,0 c 0,-12.943 -10.492,-23.435 -23.435,-23.435 -12.942,0 -23.434,10.492 -23.434,23.435 0,12.942 10.492,23.434 23.434,23.434 C -10.492,23.434 0,12.942 0,0" fill="#ffffff" fill-opacity="1" fill-rule="nonzero" stroke="none"/></g><g transform="translate(535.4346,301.0908)" id="g276"><path id="path278" d="m 0,0 c 0,-12.942 -10.492,-23.435 -23.435,-23.435 -12.942,0 -23.434,10.493 -23.434,23.435 0,12.942 10.492,23.435 23.434,23.435 C -10.492,23.435 0,12.942 0,0" fill="#f15949" fill-opacity="1" fill-rule="nonzero" stroke="none"/></g><g transform="translate(480.0483,721.7881)" id="g280"><path id="path282" d="m 0,0 c 3.35,-12.501 -4.069,-25.351 -16.57,-28.701 -12.502,-3.35 -25.352,4.069 -28.701,16.571 -3.351,12.501 4.068,25.351 16.57,28.701 C -16.2,19.92 -3.35,12.501 0,0" fill="#1b75bc" fill-opacity="1" fill-rule="nonzero" stroke="none"/></g><g transform="translate(589.2236,314.3428)" id="g284"><path id="path286" d="m 0,0 c 3.35,-12.502 -4.069,-25.352 -16.571,-28.701 -12.501,-3.351 -25.352,4.068 -28.701,16.57 -3.35,12.501 4.069,25.352 16.571,28.701 C -16.2,19.92 -3.351,12.501 0,0" fill="#f19d21" fill-opacity="1" fill-rule="nonzero" stroke="none"/></g><g transform="translate(426.8398,706.3701)" id="g288"><path id="path290" d="m 0,0 c 6.471,-11.208 2.631,-25.541 -8.577,-32.012 -11.209,-6.471 -25.541,-2.631 -32.012,8.577 -6.472,11.209 -2.631,25.541 8.577,32.013 C -20.803,15.049 -6.471,11.208 0,0" fill="#00b5bb" fill-opacity="1" fill-rule="nonzero" stroke="none"/></g><g transform="translate(637.749,341.0645)" id="g292"><path id="path294" d="m 0,0 c 6.472,-11.209 2.632,-25.541 -8.577,-32.012 -11.208,-6.471 -25.541,-2.632 -32.012,8.577 -6.472,11.208 -2.631,25.541 8.577,32.012 C -20.803,15.049 -6.471,11.208 0,0" fill="#f9ceb6" fill-opacity="1" fill-rule="nonzero" stroke="none"/></g><g transform="translate(379.4351,677.7061)" id="g296"><path id="path298" d="m 0,0 c 9.152,-9.152 9.152,-23.989 0,-33.141 -9.152,-9.152 -23.989,-9.152 -33.141,0 -9.152,9.152 -9.152,23.989 0,33.141 C -23.989,9.152 -9.152,9.152 0,0" fill="#817fbd" fill-opacity="1" fill-rule="nonzero" stroke="none"/></g><g transform="translate(677.7061,379.4355)" id="g300"><path id="path302" d="m 0,0 c 9.151,-9.152 9.151,-23.99 0,-33.142 -9.151,-9.151 -23.989,-9.151 -33.142,0 -9.151,9.152 -9.151,23.99 0,33.142 C -23.989,9.151 -9.151,9.151 0,0" fill="#c49a6c" fill-opacity="1" fill-rule="nonzero" stroke="none"/></g><g transform="translate(338.7285,636.1924)" id="g304"><path id="path306" d="m 0,0 c 11.208,-6.471 15.049,-20.803 8.578,-32.012 -6.472,-11.208 -20.804,-15.049 -32.012,-8.577 -11.209,6.471 -15.049,20.803 -8.578,32.011 C -25.541,2.631 -11.208,6.471 0,0" fill="#f15949" fill-opacity="1" fill-rule="nonzero" stroke="none"/></g><g transform="translate(706.3701,426.8398)" id="g308"><path id="path310" d="m 0,0 c 11.209,-6.471 15.049,-20.804 8.577,-32.012 -6.471,-11.209 -20.803,-15.049 -32.012,-8.577 -11.208,6.471 -15.048,20.803 -8.577,32.012 C -25.541,2.631 -11.208,6.472 0,0" fill="#ffffff" fill-opacity="1" fill-rule="nonzero" stroke="none"/></g><g transform="translate(314.3423,589.2231)" id="g312"><path id="path314" d="m 0,0 c 12.501,-3.35 19.92,-16.2 16.571,-28.701 -3.35,-12.502 -16.2,-19.921 -28.701,-16.57 -12.502,3.349 -19.921,16.199 -16.571,28.701 C -25.351,-4.069 -12.501,3.35 0,0" fill="#f19d21" fill-opacity="1" fill-rule="nonzero" stroke="none"/></g><g transform="translate(721.7881,480.0488)" id="g316"><path id="path318" d="m 0,0 c 12.502,-3.35 19.921,-16.2 16.57,-28.701 -3.349,-12.502 -16.199,-19.921 -28.701,-16.571 -12.501,3.35 -19.92,16.2 -16.57,28.701 C -25.352,-4.069 -12.501,3.35 0,0" fill="#1b75bc" fill-opacity="1" fill-rule="nonzero" stroke="none"/></g></g></g></g></svg>